# This file uses centimeters as units for non-parametric coordinates.

mtllib dirt_garden.mtl
g default
v -6.092868 -0.047566 6.660810
v 6.600974 -0.047566 6.660810
v -6.092868 -0.067399 -3.989696
v 6.600974 -0.053309 -3.989696
v 0.332789 -0.071395 -3.989696
v 0.332789 -0.051905 6.660810
v -6.092868 -0.107016 1.322428
v 0.332789 0.184296 1.322428
v 6.600974 -0.047566 1.322428
v -3.134908 -0.064627 6.660810
v -3.134907 0.334298 1.322428
v -3.134908 -0.071606 -3.989696
v 3.606491 -0.048388 6.660810
v 3.606490 0.363048 1.322428
v 3.606490 -0.132800 -3.989696
v -4.665905 -0.075353 -3.989696
v -4.665904 -0.049010 6.660810
v -6.092868 -0.096012 3.989232
v -3.134907 0.153148 3.989232
v 2.014325 -0.049508 6.660810
v 0.332789 0.980458 3.989232
v 3.606491 0.487746 3.989232
v -1.428097 -0.064607 6.660810
v -1.428097 0.283748 1.322428
v -1.428097 -0.087207 -3.989696
v 5.123439 -0.048435 6.660810
v 6.600974 -0.062759 3.989232
v 5.123439 0.024451 1.322428
v 5.123439 -0.127791 -3.989696
v 6.600974 -0.053342 -1.336021
v 2.014326 0.441312 1.322428
v 0.332789 0.628004 -1.336021
v 3.606491 0.417908 -1.336021
v 2.014325 -0.065493 -3.989696
v -4.665905 0.416806 1.322428
v -6.092868 -0.078271 -1.336021
v -3.134907 0.348176 -1.336021
v 2.014326 0.189151 -1.336021
v -4.665904 0.267577 -1.336021
v -4.665904 0.270905 3.989232
v 2.014326 0.701604 3.989232
v -1.428097 0.185238 3.989232
v -1.428097 0.358491 -1.336021
v 5.123439 0.414716 3.989232
v 5.123439 0.371248 -1.336021
v -6.092868 -0.069218 -0.007692
v -4.665904 0.318793 -0.007692
v -5.385888 0.217673 -1.336021
v -3.919913 0.456867 1.322428
v -3.134907 0.449232 -0.007692
v -3.919913 0.329154 -1.336021
v -4.665904 0.392729 -2.663157
v -3.134908 0.172845 -2.663157
v -3.919912 -0.068078 -3.989696
v -6.092868 -0.126347 -2.663157
v -5.385888 -0.081226 -3.989696
v -5.385888 -0.048116 6.660810
v -6.092868 -0.051031 5.324722
v -4.665904 0.036359 5.324722
v -5.385888 0.262395 3.989232
v -3.919913 -0.050107 6.660810
v -3.134908 0.448510 5.324722
v -3.919913 0.220924 3.989232
v -4.665904 0.652415 2.654935
v -3.134907 0.362438 2.654935
v -6.092868 -0.134547 2.654935
v 1.185388 -0.053069 6.660810
v 0.332789 0.434136 5.324722
v 2.014325 0.348248 5.324722
v 1.185388 0.978909 3.989232
v 2.820920 -0.047852 6.660810
v 3.606490 0.238773 5.324722
v 2.820920 0.559428 3.989232
v 2.014326 0.471167 2.654935
v 3.606490 0.326484 2.654935
v 0.332789 0.544960 2.654935
v -2.297886 -0.085735 6.660810
v -1.428097 0.444504 5.324722
v -2.297886 0.214491 3.989232
v -0.544789 -0.052014 6.660810
v -0.544789 0.553594 3.989232
v -1.428097 0.139971 2.654935
v -0.544789 0.161974 1.322428
v -2.297886 0.257078 1.322428
v -2.297886 -0.078584 -3.989696
v -2.297886 0.319490 -1.336021
v -1.428097 0.399331 -2.663157
v -1.428097 0.733350 -0.007692
v -0.544789 0.421621 -1.336021
v -0.544789 -0.078394 -3.989696
v 4.372354 -0.049833 6.660810
v 5.123439 0.226624 5.324722
v 4.372354 0.498454 3.989232
v 5.864670 -0.047566 6.660810
v 6.600974 -0.051221 5.324722
v 5.864670 0.236949 3.989232
v 5.123439 0.239362 2.654935
v 6.600974 -0.051221 2.654935
v 5.864670 0.006363 1.322428
v 4.372354 0.098087 1.322428
v 4.372354 -0.147776 -3.989696
v 4.372354 0.471238 -1.336021
v 5.123439 0.642139 -2.663157
v 5.123439 0.031009 -0.007692
v 5.864670 0.179881 -1.336021
v 6.600974 -0.047702 -0.007692
v 5.864670 -0.086934 -3.989696
v 6.600974 -0.070818 -2.663157
v 1.185388 0.258698 1.322428
v 0.332789 0.350210 -0.007692
v 2.014325 0.320231 -0.007692
v 1.185388 0.498286 -1.336021
v 2.820920 0.544285 1.322428
v 3.606490 0.130878 -0.007692
v 2.820920 0.260335 -1.336021
v 2.014326 0.175454 -2.663157
v 3.606490 0.677738 -2.663157
v 2.820920 -0.094244 -3.989696
v 0.332789 0.271692 -2.663157
v 1.185388 -0.067450 -3.989696
v -5.385888 0.332953 1.322428
v 1.185388 0.425907 -0.007692
v 2.820920 0.227713 -0.007692
v 2.820920 0.418093 -2.663157
v 1.185388 0.175070 -2.663157
v -5.385888 0.175445 -0.007692
v -3.919913 0.458118 -0.007692
v -3.919913 0.198090 -2.663157
v -5.385888 0.486302 -2.663157
v -5.385888 0.029425 5.324722
v -3.919913 0.089989 5.324722
v -3.919913 0.632259 2.654935
v -5.385888 0.504522 2.654935
v 1.185388 0.470208 5.324722
v 2.820920 0.249368 5.324722
v 2.820920 0.412504 2.654935
v 1.185388 0.561079 2.654935
v -2.297886 0.706735 5.324722
v -0.544789 0.212670 5.324722
v -0.544789 0.624851 2.654935
v -2.297886 0.108081 2.654935
v -2.297886 0.305465 -2.663157
v -2.297886 0.727041 -0.007692
v -0.544789 0.523687 -0.007692
v -0.544789 0.339841 -2.663157
v 4.372354 0.279055 5.324722
v 5.864670 0.112023 5.324722
v 5.864670 0.114446 2.654935
v 4.372354 0.307192 2.654935
v 4.372354 0.772443 -2.663157
v 4.372354 0.064466 -0.007692
v 5.864670 0.008180 -0.007692
v 5.864670 0.365124 -2.663157
vt 0.504790 0.500765
vt 0.556657 0.500765
vt 0.556657 0.578262
vt 0.504790 0.578262
vt 0.607085 0.500765
vt 0.607085 0.578262
vt 0.607085 0.655656
vt 0.556657 0.655656
vt 0.504790 0.655656
vt 0.656154 0.500765
vt 0.656154 0.578262
vt 0.703943 0.500765
vt 0.703943 0.578262
vt 0.703944 0.655656
vt 0.656154 0.655656
vt 0.656154 0.732979
vt 0.607085 0.732979
vt 0.703943 0.732979
vt 0.703943 0.810268
vt 0.656154 0.810268
vt 0.607085 0.810268
vt 0.556657 0.732979
vt 0.504790 0.732979
vt 0.556657 0.810268
vt 0.504790 0.810268
vt 0.113889 0.500765
vt 0.156898 0.500765
vt 0.156898 0.578262
vt 0.113889 0.578262
vt 0.200697 0.500765
vt 0.200697 0.578262
vt 0.200697 0.655656
vt 0.156898 0.655656
vt 0.113889 0.655656
vt 0.246079 0.500765
vt 0.246079 0.578262
vt 0.293835 0.500765
vt 0.293835 0.578262
vt 0.293835 0.655656
vt 0.246079 0.655656
vt 0.246079 0.732979
vt 0.200697 0.732979
vt 0.293835 0.732979
vt 0.293835 0.810268
vt 0.246079 0.810268
vt 0.200697 0.810268
vt 0.156898 0.732979
vt 0.113889 0.732979
vt 0.156898 0.810268
vt 0.113889 0.810268
vt 0.113889 0.189732
vt 0.156898 0.189732
vt 0.156898 0.267577
vt 0.113889 0.267577
vt 0.200697 0.189732
vt 0.200697 0.267577
vt 0.200697 0.345388
vt 0.156898 0.345388
vt 0.113889 0.345388
vt 0.246079 0.189732
vt 0.246079 0.267577
vt 0.293835 0.189732
vt 0.293835 0.267577
vt 0.293835 0.345388
vt 0.246079 0.345388
vt 0.246079 0.423128
vt 0.200697 0.423128
vt 0.293835 0.423128
vt 0.156898 0.423128
vt 0.113889 0.423128
vt 0.504790 0.189732
vt 0.556657 0.189732
vt 0.556657 0.267577
vt 0.504790 0.267577
vt 0.607085 0.189732
vt 0.607085 0.267577
vt 0.607085 0.345388
vt 0.556657 0.345388
vt 0.504790 0.345388
vt 0.656154 0.189732
vt 0.656154 0.267577
vt 0.703944 0.189732
vt 0.703943 0.267577
vt 0.703944 0.345388
vt 0.656154 0.345388
vt 0.656154 0.423128
vt 0.607085 0.423128
vt 0.703943 0.423128
vt 0.556657 0.423128
vt 0.504790 0.423128
vt 0.344754 0.189732
vt 0.344754 0.267577
vt 0.397667 0.189732
vt 0.397667 0.267577
vt 0.397667 0.345388
vt 0.344754 0.345388
vt 0.451403 0.189732
vt 0.451403 0.267577
vt 0.451403 0.345388
vt 0.451403 0.423128
vt 0.397667 0.423128
vt 0.451403 0.500765
vt 0.397667 0.500765
vt 0.344754 0.423128
vt 0.344754 0.500765
vt 0.344754 0.732979
vt 0.344754 0.810268
vt 0.344754 0.655656
vt 0.397667 0.655656
vt 0.397667 0.732979
vt 0.397667 0.810268
vt 0.344754 0.578262
vt 0.397667 0.578262
vt 0.451403 0.578262
vt 0.451403 0.655656
vt 0.451403 0.732979
vt 0.451403 0.810268
vt 0.750534 0.189732
vt 0.750534 0.267577
vt 0.796226 0.189732
vt 0.796226 0.267577
vt 0.796226 0.345388
vt 0.750534 0.345388
vt 0.841319 0.189732
vt 0.841319 0.267577
vt 0.886111 0.189732
vt 0.886111 0.267577
vt 0.886111 0.345388
vt 0.841319 0.345388
vt 0.841319 0.423128
vt 0.796226 0.423128
vt 0.886111 0.423128
vt 0.886111 0.500765
vt 0.841319 0.500765
vt 0.796226 0.500765
vt 0.750534 0.423128
vt 0.750534 0.500765
vt 0.750534 0.732979
vt 0.750534 0.810268
vt 0.750534 0.655656
vt 0.796226 0.655656
vt 0.796226 0.732979
vt 0.796226 0.810268
vt 0.750534 0.578262
vt 0.796226 0.578262
vt 0.841319 0.578262
vt 0.841319 0.655656
vt 0.886111 0.578262
vt 0.886111 0.655656
vt 0.841319 0.732979
vt 0.841319 0.810268
vt 0.886111 0.732979
vt 0.886111 0.810268
vn -0.004205 0.998285 -0.058384
vn -0.060896 0.996470 -0.057784
vn 0.036434 0.997298 0.063789
vn 0.003398 0.991511 0.129980
vn -0.034161 0.997690 -0.058710
vn 0.053659 0.997253 -0.051062
vn 0.064827 0.997333 -0.033531
vn 0.146276 0.986941 -0.067463
vn 0.016137 0.998352 -0.055066
vn 0.076087 0.994921 -0.065898
vn 0.036530 0.996719 -0.072232
vn 0.183032 0.980184 -0.075753
vn 0.090514 0.995722 0.018600
vn -0.097725 0.978201 0.183229
vn -0.119330 0.990250 0.071869
vn -0.178764 0.973625 -0.141767
vn -0.034202 0.990268 -0.134909
vn -0.133513 0.972978 -0.188385
vn -0.083301 0.863747 -0.496993
vn -0.126243 0.923920 -0.361157
vn -0.064374 0.972005 -0.225971
vn 0.090579 0.977130 -0.192386
vn 0.034737 0.973402 -0.226454
vn 0.026332 0.979908 -0.197703
vn 0.043033 0.968244 -0.246277
vn -0.529495 0.847273 -0.041995
vn -0.364204 0.927794 -0.080951
vn -0.278663 0.959868 -0.031637
vn -0.397624 0.917426 -0.014991
vn -0.111114 0.987884 -0.108350
vn -0.135208 0.989524 -0.050611
vn -0.037170 0.999148 0.017931
vn -0.273508 0.960121 0.057969
vn -0.456090 0.888912 0.042633
vn 0.053473 0.997060 -0.054884
vn -0.041955 0.998463 -0.036206
vn 0.100052 0.993151 0.060341
vn -0.051190 0.998685 -0.002706
vn -0.054627 0.991770 -0.115795
vn -0.011987 0.997559 -0.068786
vn 0.057718 0.987522 -0.146522
vn 0.075280 0.988833 -0.128619
vn -0.029704 0.987802 -0.152857
vn -0.029212 0.977160 -0.210488
vn 0.068593 0.971501 -0.226893
vn 0.088612 0.945145 -0.314401
vn -0.221483 0.971621 -0.083058
vn -0.470006 0.881378 -0.047621
vn -0.169108 0.946072 -0.276315
vn -0.384039 0.906806 -0.173829
vn -0.056400 0.998025 0.027667
vn -0.030070 0.998560 0.044431
vn -0.094590 0.992037 0.083154
vn -0.180355 0.982419 0.048212
vn -0.019921 0.997157 0.072671
vn -0.013197 0.993458 0.113434
vn -0.017459 0.978273 0.206584
vn -0.273161 0.952747 0.132873
vn -0.453080 0.889081 0.065225
vn -0.126772 0.978461 0.162923
vn -0.111771 0.988510 0.101762
vn -0.165452 0.924620 0.343078
vn -0.178387 0.979476 0.093835
vn -0.012102 0.999623 -0.024655
vn 0.019221 0.988800 0.148002
vn 0.123666 0.989641 0.072919
vn -0.056567 0.996846 0.055659
vn 0.190249 0.979923 0.059641
vn -0.386212 0.922083 0.024540
vn -0.591858 0.805993 0.008906
vn -0.070235 0.947668 0.311437
vn 0.023327 0.940201 0.339820
vn 0.063857 0.938886 0.338252
vn -0.130558 0.936798 0.324599
vn 0.062964 0.955139 0.289388
vn 0.123964 0.951830 0.280451
vn 0.182930 0.982030 0.046420
vn 0.101797 0.994087 0.037797
vn -0.141944 0.987754 0.064765
vn 0.033075 0.971930 0.232933
vn 0.065482 0.971517 0.227744
vn -0.008715 0.975668 0.219079
vn 0.000552 0.978921 0.204240
vn 0.031934 0.998888 0.034677
vn 0.106818 0.993002 0.050375
vn 0.091112 0.995083 -0.038835
vn 0.064996 0.990969 -0.117290
vn 0.114605 0.991516 -0.061329
vn 0.025844 0.973091 -0.228966
vn -0.054289 0.967855 -0.245580
vn 0.001068 0.898761 0.438438
vn -0.003449 0.995649 0.093120
vn 0.121526 0.925375 0.359045
vn 0.088890 0.987421 0.130761
vn -0.100433 0.992186 -0.074032
vn 0.022850 0.988661 -0.148414
vn -0.000530 0.961635 0.274331
vn -0.104407 0.968164 0.227503
vn -0.275673 0.959251 0.061981
vn -0.207503 0.968939 -0.134533
vn -0.178190 0.983904 -0.013460
vn 0.025682 0.999504 0.018255
vn -0.015582 0.987088 0.159417
vn 0.066942 0.997182 0.033876
vn 0.006667 0.984112 0.177426
vn -0.064501 0.985860 -0.154663
vn -0.059311 0.960399 -0.272243
vn -0.076870 0.987879 -0.134857
vn -0.005309 0.992877 -0.119023
vn -0.024091 0.986019 -0.164881
vn -0.009349 0.948271 -0.317324
vn -0.075277 0.996964 0.019910
vn 0.055080 0.997533 0.043514
vn 0.085185 0.991618 0.097141
vn -0.004034 0.997246 -0.074055
vn -0.004283 0.980147 -0.198227
vn 0.030275 0.953600 -0.299552
vn 0.003919 0.974909 0.222571
vn 0.015844 0.981217 0.192258
vn 0.054105 0.980158 0.190690
vn 0.097891 0.981955 0.161809
vn 0.145540 0.989339 0.005227
vn 0.040134 0.999086 0.014705
vn 0.092757 0.989645 0.109536
vn 0.171641 0.980703 0.093602
vn 0.109994 0.992244 0.057902
vn 0.207767 0.976938 0.049236
vn 0.300618 0.953745 0.000433
vn 0.248661 0.968589 0.001622
vn 0.187653 0.979221 -0.076893
vn 0.122142 0.983919 -0.130323
vn 0.226463 0.973227 -0.039304
vn 0.111166 0.993617 -0.019172
vn 0.086550 0.995482 -0.039050
vn 0.072058 0.994840 -0.071423
vn 0.095486 0.987985 -0.121528
vn 0.140181 0.986661 -0.082764
vn 0.017851 0.978821 -0.203939
vn 0.008405 0.840409 -0.541887
vn 0.036614 0.971344 0.234839
vn 0.169842 0.963302 0.207851
vn 0.167354 0.970666 -0.172626
vn 0.100686 0.871557 -0.479845
vn 0.095742 0.989707 0.106364
vn 0.082239 0.989911 0.115381
vn 0.109833 0.991874 0.064206
vn 0.266307 0.956698 0.117512
vn 0.134120 0.990472 0.031252
vn 0.308984 0.949194 0.059664
vn 0.283396 0.954050 -0.097343
vn 0.201353 0.934473 -0.293628
vn 0.341519 0.938690 -0.047184
vn 0.260313 0.952828 -0.156064
s 1
g pPlane1
usemtl lambert3SG
f 8/1/1 109/2/2 122/3/3 110/4/4
f 109/2/2 31/5/5 111/6/6 122/3/3
f 122/3/3 111/6/6 38/7/7 112/8/8
f 110/4/4 122/3/3 112/8/8 32/9/9
f 31/5/5 113/10/10 123/11/11 111/6/6
f 113/10/10 14/12/12 114/13/13 123/11/11
f 123/11/11 114/13/13 33/14/14 115/15/15
f 111/6/6 123/11/11 115/15/15 38/7/7
f 38/7/7 115/15/15 124/16/16 116/17/17
f 115/15/15 33/14/14 117/18/18 124/16/16
f 124/16/16 117/18/18 15/19/19 118/20/20
f 116/17/17 124/16/16 118/20/20 34/21/21
f 32/9/9 112/8/8 125/22/22 119/23/23
f 112/8/8 38/7/7 116/17/17 125/22/22
f 125/22/22 116/17/17 34/21/21 120/24/24
f 119/23/23 125/22/22 120/24/24 5/25/25
f 7/26/26 121/27/27 126/28/28 46/29/29
f 121/27/27 35/30/30 47/31/31 126/28/28
f 126/28/28 47/31/31 39/32/32 48/33/33
f 46/29/29 126/28/28 48/33/33 36/34/34
f 35/30/30 49/35/35 127/36/36 47/31/31
f 49/35/35 11/37/37 50/38/38 127/36/36
f 127/36/36 50/38/38 37/39/39 51/40/40
f 47/31/31 127/36/36 51/40/40 39/32/32
f 39/32/32 51/40/40 128/41/41 52/42/42
f 51/40/40 37/39/39 53/43/43 128/41/41
f 128/41/41 53/43/43 12/44/44 54/45/45
f 52/42/42 128/41/41 54/45/45 16/46/46
f 36/34/34 48/33/33 129/47/47 55/48/48
f 48/33/33 39/32/32 52/42/42 129/47/47
f 129/47/47 52/42/42 16/46/46 56/49/49
f 55/48/48 129/47/47 56/49/49 3/50/50
f 1/51/51 57/52/52 130/53/53 58/54/54
f 57/52/52 17/55/55 59/56/56 130/53/53
f 130/53/53 59/56/56 40/57/57 60/58/58
f 58/54/54 130/53/53 60/58/58 18/59/59
f 17/55/55 61/60/60 131/61/61 59/56/56
f 61/60/60 10/62/62 62/63/63 131/61/61
f 131/61/61 62/63/63 19/64/64 63/65/65
f 59/56/56 131/61/61 63/65/65 40/57/57
f 40/57/57 63/65/65 132/66/66 64/67/67
f 63/65/65 19/64/64 65/68/68 132/66/66
f 132/66/66 65/68/68 11/37/37 49/35/35
f 64/67/67 132/66/66 49/35/35 35/30/30
f 18/59/59 60/58/58 133/69/69 66/70/70
f 60/58/58 40/57/57 64/67/67 133/69/69
f 133/69/69 64/67/67 35/30/30 121/27/27
f 66/70/70 133/69/69 121/27/27 7/26/26
f 6/71/71 67/72/72 134/73/73 68/74/74
f 67/72/72 20/75/75 69/76/76 134/73/73
f 134/73/73 69/76/76 41/77/77 70/78/78
f 68/74/74 134/73/73 70/78/78 21/79/79
f 20/75/75 71/80/80 135/81/81 69/76/76
f 71/80/80 13/82/82 72/83/83 135/81/81
f 135/81/81 72/83/83 22/84/84 73/85/85
f 69/76/76 135/81/81 73/85/85 41/77/77
f 41/77/77 73/85/85 136/86/86 74/87/87
f 73/85/85 22/84/84 75/88/88 136/86/86
f 136/86/86 75/88/88 14/12/12 113/10/10
f 74/87/87 136/86/86 113/10/10 31/5/5
f 21/79/79 70/78/78 137/89/89 76/90/90
f 70/78/78 41/77/77 74/87/87 137/89/89
f 137/89/89 74/87/87 31/5/5 109/2/2
f 76/90/90 137/89/89 109/2/2 8/1/1
f 10/62/62 77/91/91 138/92/92 62/63/63
f 77/91/91 23/93/93 78/94/94 138/92/92
f 138/92/92 78/94/94 42/95/95 79/96/96
f 62/63/63 138/92/92 79/96/96 19/64/64
f 23/93/93 80/97/97 139/98/98 78/94/94
f 80/97/97 6/71/71 68/74/74 139/98/98
f 139/98/98 68/74/74 21/79/79 81/99/99
f 78/94/94 139/98/98 81/99/99 42/95/95
f 42/95/95 81/99/99 140/100/100 82/101/101
f 81/99/99 21/79/79 76/90/90 140/100/100
f 140/100/100 76/90/90 8/1/1 83/102/102
f 82/101/101 140/100/100 83/102/102 24/103/103
f 19/64/64 79/96/96 141/104/104 65/68/68
f 79/96/96 42/95/95 82/101/101 141/104/104
f 141/104/104 82/101/101 24/103/103 84/105/105
f 65/68/68 141/104/104 84/105/105 11/37/37
f 12/44/44 53/43/43 142/106/106 85/107/107
f 53/43/43 37/39/39 86/108/108 142/106/106
f 142/106/106 86/108/108 43/109/109 87/110/110
f 85/107/107 142/106/106 87/110/110 25/111/111
f 37/39/39 50/38/38 143/112/112 86/108/108
f 50/38/38 11/37/37 84/105/105 143/112/112
f 143/112/112 84/105/105 24/103/103 88/113/113
f 86/108/108 143/112/112 88/113/113 43/109/109
f 43/109/109 88/113/113 144/114/114 89/115/115
f 88/113/113 24/103/103 83/102/102 144/114/114
f 144/114/114 83/102/102 8/1/1 110/4/4
f 89/115/115 144/114/114 110/4/4 32/9/9
f 25/111/111 87/110/110 145/116/116 90/117/117
f 87/110/110 43/109/109 89/115/115 145/116/116
f 145/116/116 89/115/115 32/9/9 119/23/23
f 90/117/117 145/116/116 119/23/23 5/25/25
f 13/82/82 91/118/118 146/119/119 72/83/83
f 91/118/118 26/120/120 92/121/121 146/119/119
f 146/119/119 92/121/121 44/122/122 93/123/123
f 72/83/83 146/119/119 93/123/123 22/84/84
f 26/120/120 94/124/124 147/125/125 92/121/121
f 94/124/124 2/126/126 95/127/127 147/125/125
f 147/125/125 95/127/127 27/128/128 96/129/129
f 92/121/121 147/125/125 96/129/129 44/122/122
f 44/122/122 96/129/129 148/130/130 97/131/131
f 96/129/129 27/128/128 98/132/132 148/130/130
f 148/130/130 98/132/132 9/133/133 99/134/134
f 97/131/131 148/130/130 99/134/134 28/135/135
f 22/84/84 93/123/123 149/136/136 75/88/88
f 93/123/123 44/122/122 97/131/131 149/136/136
f 149/136/136 97/131/131 28/135/135 100/137/137
f 75/88/88 149/136/136 100/137/137 14/12/12
f 15/19/19 117/18/18 150/138/138 101/139/139
f 117/18/18 33/14/14 102/140/140 150/138/138
f 150/138/138 102/140/140 45/141/141 103/142/142
f 101/139/139 150/138/138 103/142/142 29/143/143
f 33/14/14 114/13/13 151/144/144 102/140/140
f 114/13/13 14/12/12 100/137/137 151/144/144
f 151/144/144 100/137/137 28/135/135 104/145/145
f 102/140/140 151/144/144 104/145/145 45/141/141
f 45/141/141 104/145/145 152/146/146 105/147/147
f 104/145/145 28/135/135 99/134/134 152/146/146
f 152/146/146 99/134/134 9/133/133 106/148/148
f 105/147/147 152/146/146 106/148/148 30/149/149
f 29/143/143 103/142/142 153/150/150 107/151/151
f 103/142/142 45/141/141 105/147/147 153/150/150
f 153/150/150 105/147/147 30/149/149 108/152/152
f 107/151/151 153/150/150 108/152/152 4/153/153
