# This file uses centimeters as units for non-parametric coordinates.

mtllib farmPlant_v001.mtl
g default
v -1.146238 0.000000 0.000000
v 1.146238 0.000000 0.000000
v -1.146238 5.109680 0.000000
v 1.146238 5.109680 0.000000
v -1.146238 2.554840 0.000000
v 1.146238 2.554840 0.000000
v 0.000000 0.000000 -1.146238
v 0.000000 0.000000 1.146238
v 0.000000 5.109680 -1.146238
v 0.000000 5.109680 1.146238
v 0.000000 2.554840 1.146238
v 0.000000 2.554840 -1.146238
vt 0.282312 0.000000
vt 0.717688 0.000000
vt 0.282312 1.000000
vt 0.717688 1.000000
vt 0.282312 0.500000
vt 0.717688 0.500000
vt 0.282312 0.000000
vt 0.717688 0.000000
vt 0.717688 0.500000
vt 0.282312 0.500000
vt 0.717688 1.000000
vt 0.282312 1.000000
vn 0.000000 0.000000 1.000000
vn 0.000000 0.000000 1.000000
vn 0.000000 0.000000 1.000000
vn 0.000000 0.000000 1.000000
vn 0.000000 0.000000 1.000000
vn 0.000000 0.000000 1.000000
vn -1.000000 0.000000 0.000000
vn -1.000000 0.000000 0.000000
vn -1.000000 0.000000 0.000000
vn -1.000000 0.000000 0.000000
vn -1.000000 0.000000 0.000000
vn -1.000000 0.000000 0.000000
s 1
g farmPlant_geo
usemtl blinn2SG
f 5/5/1 6/6/2 4/4/3 3/3/4
f 1/1/5 2/2/6 6/6/2 5/5/1
s 2
f 7/7/7 8/8/8 11/9/9 12/10/10
f 12/10/10 11/9/9 10/11/11 9/12/12
