# This file uses centimeters as units for non-parametric coordinates.

mtllib landscape_landMtnWater_v01.mtl
g default
v -455.315531 27.723942 112.811586
v -410.085089 39.793358 112.809855
v -366.066832 100.358536 112.809889
v -265.875607 72.485184 112.813248
v -227.392437 72.232208 112.818320
v -183.362627 69.275749 112.831824
v -120.328713 67.708969 112.833538
v -66.794252 85.706963 112.833503
v 1.737597 53.278717 112.826752
v 58.039290 23.140081 112.821696
v 99.887322 3.759209 112.814945
v -452.958724 22.170048 -5.407745
v -412.697188 46.860352 -19.654026
v -352.335448 58.860634 -29.421268
v -283.363980 58.992859 -30.439842
v -228.605183 61.456619 -27.655684
v -176.880665 74.254326 -30.695165
v -122.605159 70.400826 -27.582850
v -74.878625 67.107407 -22.931224
v 2.077704 49.179230 -28.190168
v 49.571515 23.665043 0.771014
v 99.886651 0.671179 6.532252
v 43.272381 1.646021 -74.939649
v 99.887017 1.963742 -74.939450
v 42.146528 -6.170621 -158.674068
v 99.887504 -24.161144 -151.118170
v 34.828822 -17.790081 -241.199478
v 99.887443 -24.163124 -241.186148
v 32.197292 -18.370613 -328.062970
v 99.887541 -24.160528 -329.412124
v 31.214507 -18.922567 -414.875859
v 99.887541 -24.160963 -416.695683
v 30.745968 -19.913651 -498.196859
v 99.887565 -24.160189 -500.226561
v 35.692267 -17.928032 -579.445966
v 99.887419 -24.162930 -585.107873
v 39.051979 -27.996672 -668.427887
v 99.887297 -24.163538 -670.303924
v 46.247700 -26.670614 -752.848828
v 99.887200 -24.162783 -752.848828
v 99.889661 15.839213 59.938633
v 72.885584 54.071739 62.526989
v 29.878880 100.266136 53.341581
v -64.659351 146.734772 54.011500
v -124.220513 120.029419 56.837537
v -182.304947 107.771088 56.246926
v -230.243814 91.387283 47.223527
v -264.721383 98.289192 39.463482
v -370.773378 122.549606 29.288931
v -426.349723 72.015182 46.385556
v -459.294419 40.483444 53.550610
v -393.448973 -2.520439 -74.939831
v -446.922048 -2.520387 -74.939805
v -340.510197 -2.520569 -74.939943
v -282.350222 -2.520563 -74.939900
v -226.704265 -2.520546 -74.939848
v -173.983782 -2.520642 -74.939831
v -121.590316 -2.520839 -74.939865
v -68.235107 -2.520939 -74.939882
v -10.958407 -2.520663 -74.939779
v -12.709834 -2.523842 -158.674172
v -13.766390 -2.523842 -241.197989
v -15.058436 -2.523842 -326.277649
v -16.835532 -2.523842 -411.937084
v -17.819136 -2.523842 -496.118474
v -17.518430 -2.523842 -580.204248
v -17.179079 -2.523845 -667.173224
v -14.248328 -2.523845 -752.850144
vt 0.010395 0.012005
vt 0.061392 0.012006
vt 0.043054 0.086899
vt 0.005909 0.078820
vt 0.111022 0.012006
vt 0.105715 0.106175
vt 0.223985 0.012003
vt 0.225286 0.094703
vt 0.267374 0.011997
vt 0.264159 0.085954
vt 0.317017 0.011982
vt 0.318209 0.075780
vt 0.388086 0.011980
vt 0.383698 0.075114
vt 0.448445 0.011980
vt 0.450852 0.078300
vt 0.525713 0.011987
vt 0.557442 0.079056
vt 0.589192 0.011993
vt 0.605931 0.068699
vt 0.636375 0.012001
vt 0.636378 0.071618
vt 0.013053 0.145294
vt 0.058447 0.161357
vt 0.080149 0.223690
vt 0.019859 0.223690
vt 0.126503 0.172369
vt 0.139836 0.223691
vt 0.204267 0.173518
vt 0.205410 0.223690
vt 0.266007 0.170379
vt 0.268150 0.223690
vt 0.324325 0.173805
vt 0.327591 0.223690
vt 0.385520 0.170296
vt 0.386664 0.223690
vt 0.439330 0.165052
vt 0.446821 0.223690
vt 0.526097 0.170981
vt 0.511399 0.223690
vt 0.579645 0.138328
vt 0.572543 0.223690
vt 0.636374 0.131832
vt 0.636375 0.223690
vt 0.571274 0.318099
vt 0.509424 0.318099
vt 0.636375 0.309580
vt 0.563023 0.411145
vt 0.508233 0.411143
vt 0.636375 0.411130
vt 0.560056 0.509082
vt 0.506776 0.507069
vt 0.636375 0.510603
vt 0.558948 0.606961
vt 0.504773 0.603648
vt 0.636375 0.609013
vt 0.558420 0.700904
vt 0.503664 0.698561
vt 0.636375 0.703192
vt 0.563997 0.792511
vt 0.504003 0.793366
vt 0.636375 0.798894
vt 0.567785 0.892836
vt 0.504385 0.891421
vt 0.636375 0.894951
vt 0.575898 0.988019
vt 0.507690 0.988020
vt 0.636375 0.988019
vn -0.427782 0.826969 0.364864
vn -0.566719 0.744966 0.351929
vn -0.649172 0.757351 -0.070675
vn -0.572806 0.819636 0.009498
vn -0.179930 0.922237 0.342206
vn -0.122535 0.986192 -0.111398
vn 0.179785 0.940511 0.288300
vn 0.178480 0.975477 -0.128803
vn -0.071828 0.923960 0.375684
vn -0.093590 0.991752 -0.087575
vn -0.112661 0.828110 0.549127
vn -0.131724 0.990853 0.029305
vn -0.155990 0.738737 0.655694
vn -0.189521 0.981769 0.014526
vn 0.105885 0.696034 0.710158
vn 0.142093 0.986405 -0.082551
vn 0.375030 0.652403 0.658577
vn 0.457175 0.885243 -0.085652
vn 0.519412 0.678883 0.518969
vn 0.670420 0.741856 0.013651
vn 0.602101 0.702458 0.379508
vn 0.638508 0.766551 -0.068603
vn -0.438959 0.769726 -0.463505
vn -0.401389 0.703294 -0.586741
vn -0.196114 0.712210 -0.674015
vn -0.290388 0.795949 -0.531169
vn -0.099649 0.708219 -0.698925
vn -0.062047 0.616410 -0.784977
vn 0.070832 0.719008 -0.691383
vn -0.000334 0.590448 -0.807076
vn -0.064262 0.744742 -0.664251
vn -0.042996 0.565885 -0.823362
vn -0.092028 0.779980 -0.619001
vn -0.020515 0.532341 -0.846281
vn -0.037972 0.722540 -0.690286
vn 0.049867 0.547230 -0.835495
vn 0.094321 0.702048 -0.705855
vn 0.054792 0.604729 -0.794545
vn 0.310930 0.682871 -0.661067
vn 0.101774 0.856927 -0.505289
vn 0.474031 0.768485 -0.429797
vn 0.172507 0.957459 -0.231330
vn 0.366076 0.897626 -0.245473
vn 0.186740 0.967113 -0.172683
vn 0.137271 0.985297 -0.101721
vn 0.086783 0.994266 -0.062477
vn 0.183001 0.974059 -0.133116
vn 0.186119 0.981703 -0.040238
vn 0.245189 0.968476 -0.044008
vn 0.143092 0.988972 -0.038196
vn 0.184779 0.982760 -0.006340
vn 0.314342 0.949265 -0.009203
vn 0.085761 0.996307 -0.004128
vn 0.182710 0.983146 -0.006364
vn 0.324837 0.945734 -0.008297
vn 0.074538 0.997206 -0.004860
vn 0.183618 0.982984 0.005126
vn 0.318332 0.947958 0.006386
vn 0.073806 0.997265 0.004009
vn 0.185737 0.982440 -0.017720
vn 0.330040 0.943845 -0.015177
vn 0.046545 0.998659 -0.022678
vn 0.184872 0.982619 -0.016819
vn 0.370718 0.928712 -0.007825
vn -0.017950 0.999459 -0.027572
vn 0.171537 0.985005 0.018437
vn 0.391307 0.919756 0.030466
vn -0.055215 0.998459 0.005555
s 1
g polySurface1 pPlane3
usemtl lambert4SG
f 1/1/1 2/2/2 50/3/3 51/4/4
f 2/2/2 3/5/5 49/6/6 50/3/3
f 3/5/5 4/7/7 48/8/8 49/6/6
f 4/7/7 5/9/9 47/10/10 48/8/8
f 5/9/9 6/11/11 46/12/12 47/10/10
f 6/11/11 7/13/13 45/14/14 46/12/12
f 7/13/13 8/15/15 44/16/16 45/14/14
f 8/15/15 9/17/17 43/18/18 44/16/16
f 9/17/17 10/19/19 42/20/20 43/18/18
f 10/19/19 11/21/21 41/22/22 42/20/20
f 12/23/23 13/24/24 52/25/25 53/26/26
f 13/24/24 14/27/27 54/28/28 52/25/25
f 14/27/27 15/29/29 55/30/30 54/28/28
f 15/29/29 16/31/31 56/32/32 55/30/30
f 16/31/31 17/33/33 57/34/34 56/32/32
f 17/33/33 18/35/35 58/36/36 57/34/34
f 18/35/35 19/37/37 59/38/38 58/36/36
f 19/37/37 20/39/39 60/40/40 59/38/38
f 20/39/39 21/41/41 23/42/42 60/40/40
f 21/41/41 22/43/43 24/44/44 23/42/42
f 60/40/40 23/42/42 25/45/45 61/46/46
f 23/42/42 24/44/44 26/47/47 25/45/45
f 61/46/46 25/45/45 27/48/48 62/49/49
f 25/45/45 26/47/47 28/50/50 27/48/48
f 62/49/49 27/48/48 29/51/51 63/52/52
f 27/48/48 28/50/50 30/53/53 29/51/51
f 63/52/52 29/51/51 31/54/54 64/55/55
f 29/51/51 30/53/53 32/56/56 31/54/54
f 64/55/55 31/54/54 33/57/57 65/58/58
f 31/54/54 32/56/56 34/59/59 33/57/57
f 65/58/58 33/57/57 35/60/60 66/61/61
f 33/57/57 34/59/59 36/62/62 35/60/60
f 66/61/61 35/60/60 37/63/63 67/64/64
f 35/60/60 36/62/62 38/65/65 37/63/63
f 67/64/64 37/63/63 39/66/66 68/67/67
f 37/63/63 38/65/65 40/68/68 39/66/66
f 42/20/20 41/22/22 22/43/43 21/41/41
f 43/18/18 42/20/20 21/41/41 20/39/39
f 44/16/16 43/18/18 20/39/39 19/37/37
f 45/14/14 44/16/16 19/37/37 18/35/35
f 46/12/12 45/14/14 18/35/35 17/33/33
f 47/10/10 46/12/12 17/33/33 16/31/31
f 48/8/8 47/10/10 16/31/31 15/29/29
f 49/6/6 48/8/8 15/29/29 14/27/27
f 50/3/3 49/6/6 14/27/27 13/24/24
f 51/4/4 50/3/3 13/24/24 12/23/23
