# This file uses centimeters as units for non-parametric coordinates.

mtllib lightning_bolt.mtl
g default
v -2.599268 -0.000000 -3.600835
v -5.450779 -0.000000 -0.253726
v -3.299447 -0.000000 -0.253726
v -0.447937 -0.000000 -3.600835
v -3.992880 -0.000000 -1.901002
v -1.841548 -0.000000 -1.901002
v -3.023153 -0.000000 -3.002047
v -0.871821 -0.000000 -3.002047
v -1.947487 -0.000000 -3.002047
v -1.523603 -0.000000 -3.600835
v -2.917214 -0.000000 -1.901002
v -3.494387 -0.000000 -2.439578
v -2.418721 -0.000000 -2.439578
v -1.343055 -0.000000 -2.439578
v -4.500093 -0.000000 -1.370588
v -2.348762 -0.000000 -1.370588
v -3.424427 -0.000000 -1.370588
v -4.375113 -0.000000 -0.253726
v -4.994259 -0.000000 -0.828076
v -3.918594 -0.000000 -0.828076
v -2.842928 -0.000000 -0.828076
v -4.375113 0.280820 -0.253726
v -3.299447 0.280820 -0.253726
v -2.842928 0.280820 -0.828076
v -3.918594 0.280820 -0.828076
v -2.917214 0.280820 -1.901002
v -1.841548 0.280820 -1.901002
v -1.343055 0.280820 -2.439578
v -2.418721 0.280820 -2.439578
v -1.947487 0.280820 -3.002047
v -0.871821 0.280820 -3.002047
v -0.447937 0.280820 -3.600835
v -1.523603 0.280820 -3.600835
v -2.599268 0.280820 -3.600835
v -3.023153 0.280820 -3.002047
v -3.494387 0.280820 -2.439578
v -3.992880 0.280820 -1.901002
v -3.424427 0.280820 -1.370588
v -2.348762 0.280820 -1.370588
v -4.500093 0.280820 -1.370588
v -4.994259 0.280820 -0.828076
v -5.450779 0.280820 -0.253726
vt 0.000000 0.000000
vt 1.000000 0.000000
vt 1.000000 1.000000
vt 0.000000 1.000000
vt 0.499874 0.000000
vt 0.499874 1.000000
vt 0.166950 0.000000
vt 0.166950 1.000000
vt 0.166950 0.500000
vt 0.000000 0.500000
vt 0.499874 0.500000
vt 0.333630 0.000000
vt 0.333630 0.500000
vt 0.333630 1.000000
vt 0.666200 0.000000
vt 0.666200 1.000000
vt 0.666200 0.500000
vt 1.000000 0.500000
vt 0.832988 0.000000
vt 0.832988 0.500000
vt 0.832988 1.000000
vt 1.000000 0.500000
vt 1.000000 1.000000
vt 0.832988 1.000000
vt 0.832988 0.500000
vt 0.499874 0.500000
vt 0.499874 1.000000
vt 0.333630 1.000000
vt 0.333630 0.500000
vt 0.166950 0.500000
vt 0.166950 1.000000
vt 0.000000 1.000000
vt 0.000000 0.500000
vt 0.000000 0.000000
vt 0.166950 0.000000
vt 0.333630 0.000000
vt 0.499874 0.000000
vt 0.666200 0.500000
vt 0.666200 1.000000
vt 0.666200 0.000000
vt 0.832988 0.000000
vt 1.000000 0.000000
vt 1.000000 0.500000
vt 1.000000 1.000000
vt 0.832988 1.000000
vt 0.499874 1.000000
vt 0.333630 1.000000
vt 0.166950 1.000000
vt 0.000000 1.000000
vt 0.000000 0.500000
vt 0.000000 0.000000
vt 0.166950 0.000000
vt 0.333630 0.000000
vt 0.499874 0.000000
vt 0.666200 1.000000
vt 0.666200 0.000000
vt 0.832988 0.000000
vt 1.000000 0.000000
vn -0.000000 1.000000 -0.000000
vn 0.000000 1.000000 0.000000
vn 0.000000 1.000000 0.000000
vn -0.000000 1.000000 -0.000000
vn 0.000000 1.000000 0.000000
vn 0.000000 1.000000 0.000000
vn 0.000000 1.000000 0.000000
vn 0.000000 1.000000 -0.000000
vn 0.000000 1.000000 0.000000
vn 0.000000 1.000000 0.000000
vn 0.000000 1.000000 0.000000
vn 0.000000 1.000000 0.000000
vn -0.000000 1.000000 -0.000000
vn -0.000000 1.000000 -0.000000
vn -0.000000 1.000000 -0.000000
vn -0.000000 1.000000 -0.000000
vn -0.000000 1.000000 0.000000
vn 0.000000 1.000000 0.000000
vn -0.000000 1.000000 -0.000000
vn -0.000000 1.000000 -0.000000
vn -0.000000 1.000000 -0.000000
vn 0.000000 -1.000000 0.000000
vn 0.000000 -1.000000 0.000000
vn 0.000000 -1.000000 0.000000
vn 0.000000 -1.000000 0.000000
vn 0.000000 -1.000000 0.000000
vn 0.000000 -1.000000 0.000000
vn 0.000000 -1.000000 0.000000
vn 0.000000 -1.000000 0.000000
vn 0.000000 -1.000000 0.000000
vn 0.000000 -1.000000 0.000000
vn 0.000000 -1.000000 0.000000
vn 0.000000 -1.000000 0.000000
vn 0.000000 -1.000000 0.000000
vn 0.000000 -1.000000 0.000000
vn 0.000000 -1.000000 0.000000
vn 0.000000 -1.000000 0.000000
vn 0.000000 -1.000000 0.000000
vn 0.000000 -1.000000 0.000000
vn 0.000000 -1.000000 0.000000
vn 0.000000 -1.000000 0.000000
vn 0.000000 -1.000000 0.000000
vn 0.000000 0.000000 1.000000
vn 0.000000 0.000000 1.000000
vn 0.000000 0.000000 1.000000
vn 0.000000 0.000000 1.000000
vn 0.782834 0.000000 0.622231
vn 0.782834 0.000000 0.622231
vn 0.782834 0.000000 0.622231
vn 0.782834 0.000000 0.622231
vn 0.733889 0.000000 0.679270
vn 0.733889 0.000000 0.679270
vn 0.733889 0.000000 0.679270
vn 0.733889 0.000000 0.679270
vn 0.816190 0.000000 0.577784
vn 0.816190 0.000000 0.577784
vn 0.816190 0.000000 0.577784
vn 0.816190 0.000000 0.577784
vn -0.000000 0.000000 -1.000000
vn -0.000000 0.000000 -1.000000
vn -0.000000 0.000000 -1.000000
vn -0.000000 0.000000 -1.000000
vn -0.816190 0.000000 -0.577784
vn -0.816190 0.000000 -0.577784
vn -0.816190 0.000000 -0.577784
vn -0.816190 0.000000 -0.577784
vn 0.000000 0.000000 -1.000000
vn 0.000000 0.000000 -1.000000
vn 0.000000 0.000000 -1.000000
vn 0.000000 0.000000 -1.000000
vn -0.733889 0.000000 -0.679270
vn -0.733889 0.000000 -0.679270
vn -0.733889 0.000000 -0.679270
vn -0.733889 0.000000 -0.679270
vn -0.766537 0.000000 -0.642200
vn -0.766537 0.000000 -0.642200
vn -0.766537 0.000000 -0.642200
vn -0.766537 0.000000 -0.642200
vn 0.766537 0.000000 0.642200
vn 0.766537 0.000000 0.642200
vn 0.766537 0.000000 0.642200
vn 0.766537 0.000000 0.642200
vn 0.722736 0.000000 0.691124
vn 0.722736 0.000000 0.691124
vn 0.722736 0.000000 0.691124
vn 0.722736 0.000000 0.691124
vn -0.722736 0.000000 -0.691124
vn -0.722736 0.000000 -0.691124
vn -0.722736 0.000000 -0.691124
vn -0.722736 0.000000 -0.691124
vn -0.782834 0.000000 -0.622231
vn -0.782834 0.000000 -0.622231
vn -0.782834 0.000000 -0.622231
vn -0.782834 0.000000 -0.622231
vn 0.000000 0.000000 1.000000
vn 0.000000 0.000000 1.000000
vn 0.000000 0.000000 1.000000
vn 0.000000 0.000000 1.000000
vn -0.739279 0.000000 -0.673399
vn -0.739279 0.000000 -0.673399
vn -0.739279 0.000000 -0.673399
vn -0.739279 0.000000 -0.673399
vn 0.739279 0.000000 0.673399
vn 0.739279 0.000000 0.673399
vn 0.739279 0.000000 0.673399
vn 0.739279 0.000000 0.673399
s 1
g nurbsToPoly4
usemtl initialShadingGroup
f 22/43/1 23/44/2 24/45/3 25/20/4
f 26/11/5 27/46/6 28/47/7 29/13/8
f 30/9/9 31/48/10 32/49/11 33/50/12
f 34/51/13 35/52/14 30/9/9 33/50/12
f 36/53/15 37/54/16 26/11/5 29/13/8
f 35/52/14 36/53/15 29/13/8 30/9/9
f 28/47/7 31/48/10 30/9/9 29/13/8
f 38/17/17 39/55/18 27/46/6 26/11/5
f 37/54/16 40/56/19 38/17/17 26/11/5
f 41/57/20 42/58/21 22/43/1 25/20/4
f 40/56/19 41/57/20 25/20/4 38/17/17
f 24/45/3 39/55/18 38/17/17 25/20/4
s 3
f 18/22/22 20/25/23 21/24/24 3/23/25
f 11/26/26 13/29/27 14/28/28 6/27/29
f 9/30/30 10/33/31 4/32/32 8/31/33
f 1/34/34 10/33/31 9/30/30 7/35/35
f 12/36/36 13/29/27 11/26/26 5/37/37
f 7/35/35 9/30/30 13/29/27 12/36/36
f 14/28/28 13/29/27 9/30/30 8/31/33
f 17/38/38 11/26/26 6/27/29 16/39/39
f 5/37/37 11/26/26 17/38/38 15/40/40
f 19/41/41 20/25/23 18/22/22 2/42/42
f 15/40/40 17/38/38 20/25/23 19/41/41
f 21/24/24 20/25/23 17/38/38 16/39/39
s off
f 18/18/43 3/3/44 23/44/45 22/43/46
f 3/3/47 21/21/48 24/45/49 23/44/50
f 6/6/51 14/14/52 28/47/53 27/46/54
f 8/8/55 4/4/56 32/49/57 31/48/58
f 4/4/59 10/10/60 33/50/61 32/49/62
f 1/1/63 7/7/64 35/52/65 34/51/66
f 10/10/67 1/1/68 34/51/69 33/50/70
f 12/12/71 5/5/72 37/54/73 36/53/74
f 7/7/75 12/12/76 36/53/77 35/52/78
f 14/14/79 8/8/80 31/48/81 28/47/82
f 16/16/83 6/6/84 27/46/85 39/55/86
f 5/5/87 15/15/88 40/56/89 37/54/90
f 19/19/91 2/2/92 42/58/93 41/57/94
f 2/2/95 18/18/96 22/43/97 42/58/98
f 15/15/99 19/19/100 41/57/101 40/56/102
f 21/21/103 16/16/104 39/55/105 24/45/106
g default
v -1.541357 -0.000000 -6.674396
v -4.392867 -0.000000 -3.327287
v -2.350021 -0.000000 -3.327287
v 0.501490 -0.000000 -6.674396
v -2.934968 -0.000000 -4.974563
v -0.892122 -0.000000 -4.974563
v -1.965241 -0.000000 -6.075608
v 0.077605 -0.000000 -6.075608
v -0.943818 -0.000000 -6.075608
v -0.519934 -0.000000 -6.674396
v -1.913545 -0.000000 -4.974563
v -2.436475 -0.000000 -5.513139
v -1.415052 -0.000000 -5.513139
v -0.393629 -0.000000 -5.513139
v -3.442181 -0.000000 -4.444149
v -1.399335 -0.000000 -4.444149
v -2.420758 -0.000000 -4.444149
v -3.371444 -0.000000 -3.327287
v -3.936348 -0.000000 -3.901638
v -2.914925 -0.000000 -3.901638
v -1.893501 -0.000000 -3.901638
v -3.371444 0.271291 -3.327287
v -2.350021 0.271291 -3.327287
v -1.893501 0.271291 -3.901638
v -2.914925 0.271291 -3.901638
v -1.913545 0.271291 -4.974563
v -0.892122 0.271291 -4.974563
v -0.393629 0.271291 -5.513139
v -1.415052 0.271291 -5.513139
v -0.943818 0.271291 -6.075608
v 0.077605 0.271291 -6.075608
v 0.501490 0.271291 -6.674396
v -0.519934 0.271291 -6.674396
v -1.541357 0.271291 -6.674396
v -1.965241 0.271291 -6.075608
v -2.436475 0.271291 -5.513139
v -2.934968 0.271291 -4.974563
v -2.420758 0.271291 -4.444149
v -1.399335 0.271291 -4.444149
v -3.442181 0.271291 -4.444149
v -3.936348 0.271291 -3.901638
v -4.392867 0.271291 -3.327287
vt 0.000000 0.000000
vt 1.000000 0.000000
vt 1.000000 1.000000
vt 0.000000 1.000000
vt 0.499874 0.000000
vt 0.499874 1.000000
vt 0.166950 0.000000
vt 0.166950 1.000000
vt 0.166950 0.500000
vt 0.000000 0.500000
vt 0.499874 0.500000
vt 0.333630 0.000000
vt 0.333630 0.500000
vt 0.333630 1.000000
vt 0.666200 0.000000
vt 0.666200 1.000000
vt 0.666200 0.500000
vt 1.000000 0.500000
vt 0.832988 0.000000
vt 0.832988 0.500000
vt 0.832988 1.000000
vt 1.000000 0.500000
vt 1.000000 1.000000
vt 0.832988 1.000000
vt 0.832988 0.500000
vt 0.499874 0.500000
vt 0.499874 1.000000
vt 0.333630 1.000000
vt 0.333630 0.500000
vt 0.166950 0.500000
vt 0.166950 1.000000
vt 0.000000 1.000000
vt 0.000000 0.500000
vt 0.000000 0.000000
vt 0.166950 0.000000
vt 0.333630 0.000000
vt 0.499874 0.000000
vt 0.666200 0.500000
vt 0.666200 1.000000
vt 0.666200 0.000000
vt 0.832988 0.000000
vt 1.000000 0.000000
vt 1.000000 0.500000
vt 1.000000 1.000000
vt 0.832988 1.000000
vt 0.499874 1.000000
vt 0.333630 1.000000
vt 0.166950 1.000000
vt 0.000000 1.000000
vt 0.000000 0.500000
vt 0.000000 0.000000
vt 0.166950 0.000000
vt 0.333630 0.000000
vt 0.499874 0.000000
vt 0.666200 1.000000
vt 0.666200 0.000000
vt 0.832988 0.000000
vt 1.000000 0.000000
vn 0.000000 1.000000 -0.000000
vn 0.000000 1.000000 -0.000000
vn 0.000000 1.000000 0.000000
vn 0.000000 1.000000 -0.000000
vn 0.000000 1.000000 0.000000
vn 0.000000 1.000000 0.000000
vn 0.000000 1.000000 0.000000
vn 0.000000 1.000000 0.000000
vn 0.000000 1.000000 0.000000
vn 0.000000 1.000000 0.000000
vn 0.000000 1.000000 0.000000
vn 0.000000 1.000000 0.000000
vn 0.000000 1.000000 0.000000
vn 0.000000 1.000000 0.000000
vn 0.000000 1.000000 0.000000
vn 0.000000 1.000000 0.000000
vn 0.000000 1.000000 0.000000
vn 0.000000 1.000000 0.000000
vn 0.000000 1.000000 0.000000
vn 0.000000 1.000000 0.000000
vn 0.000000 1.000000 0.000000
vn 0.000000 -1.000000 0.000000
vn 0.000000 -1.000000 0.000000
vn 0.000000 -1.000000 0.000000
vn 0.000000 -1.000000 0.000000
vn 0.000000 -1.000000 0.000000
vn 0.000000 -1.000000 0.000000
vn 0.000000 -1.000000 0.000000
vn 0.000000 -1.000000 0.000000
vn 0.000000 -1.000000 0.000000
vn 0.000000 -1.000000 0.000000
vn 0.000000 -1.000000 0.000000
vn 0.000000 -1.000000 0.000000
vn 0.000000 -1.000000 0.000000
vn 0.000000 -1.000000 0.000000
vn 0.000000 -1.000000 0.000000
vn 0.000000 -1.000000 0.000000
vn 0.000000 -1.000000 0.000000
vn 0.000000 -1.000000 0.000000
vn 0.000000 -1.000000 0.000000
vn 0.000000 -1.000000 0.000000
vn 0.000000 -1.000000 0.000000
vn 0.000000 0.000000 1.000000
vn 0.000000 0.000000 1.000000
vn 0.000000 0.000000 1.000000
vn 0.000000 0.000000 1.000000
vn 0.782834 0.000000 0.622231
vn 0.782834 0.000000 0.622231
vn 0.782834 0.000000 0.622231
vn 0.782834 0.000000 0.622231
vn 0.733888 0.000000 0.679270
vn 0.733888 0.000000 0.679270
vn 0.733888 0.000000 0.679270
vn 0.733888 0.000000 0.679270
vn 0.816190 0.000000 0.577784
vn 0.816190 0.000000 0.577784
vn 0.816190 0.000000 0.577784
vn 0.816190 0.000000 0.577784
vn 0.000000 0.000000 -1.000000
vn 0.000000 0.000000 -1.000000
vn 0.000000 0.000000 -1.000000
vn 0.000000 0.000000 -1.000000
vn -0.816190 0.000000 -0.577784
vn -0.816190 0.000000 -0.577784
vn -0.816190 0.000000 -0.577784
vn -0.816190 0.000000 -0.577784
vn 0.000000 0.000000 -1.000000
vn 0.000000 0.000000 -1.000000
vn 0.000000 0.000000 -1.000000
vn 0.000000 0.000000 -1.000000
vn -0.733888 0.000000 -0.679270
vn -0.733888 0.000000 -0.679270
vn -0.733888 0.000000 -0.679270
vn -0.733888 0.000000 -0.679270
vn -0.766537 0.000000 -0.642200
vn -0.766537 0.000000 -0.642200
vn -0.766537 0.000000 -0.642200
vn -0.766537 0.000000 -0.642200
vn 0.766537 0.000000 0.642200
vn 0.766537 0.000000 0.642200
vn 0.766537 0.000000 0.642200
vn 0.766537 0.000000 0.642200
vn 0.722737 0.000000 0.691123
vn 0.722737 0.000000 0.691123
vn 0.722737 0.000000 0.691123
vn 0.722737 0.000000 0.691123
vn -0.722737 0.000000 -0.691123
vn -0.722737 0.000000 -0.691123
vn -0.722737 0.000000 -0.691123
vn -0.722737 0.000000 -0.691123
vn -0.782834 0.000000 -0.622231
vn -0.782834 0.000000 -0.622231
vn -0.782834 0.000000 -0.622231
vn -0.782834 0.000000 -0.622231
vn 0.000000 0.000000 1.000000
vn 0.000000 0.000000 1.000000
vn 0.000000 0.000000 1.000000
vn 0.000000 0.000000 1.000000
vn -0.739279 0.000000 -0.673399
vn -0.739279 0.000000 -0.673399
vn -0.739279 0.000000 -0.673399
vn -0.739279 0.000000 -0.673399
vn 0.739279 0.000000 0.673399
vn 0.739279 0.000000 0.673399
vn 0.739279 0.000000 0.673399
vn 0.739279 0.000000 0.673399
s 1
g nurbsToPoly3
usemtl initialShadingGroup
f 64/101/107 65/102/108 66/103/109 67/78/110
f 68/69/111 69/104/112 70/105/113 71/71/114
f 72/67/115 73/106/116 74/107/117 75/108/118
f 76/109/119 77/110/120 72/67/115 75/108/118
f 78/111/121 79/112/122 68/69/111 71/71/114
f 77/110/120 78/111/121 71/71/114 72/67/115
f 70/105/113 73/106/116 72/67/115 71/71/114
f 80/75/123 81/113/124 69/104/112 68/69/111
f 79/112/122 82/114/125 80/75/123 68/69/111
f 83/115/126 84/116/127 64/101/107 67/78/110
f 82/114/125 83/115/126 67/78/110 80/75/123
f 66/103/109 81/113/124 80/75/123 67/78/110
s 3
f 60/80/128 62/83/129 63/82/130 45/81/131
f 53/84/132 55/87/133 56/86/134 48/85/135
f 51/88/136 52/91/137 46/90/138 50/89/139
f 43/92/140 52/91/137 51/88/136 49/93/141
f 54/94/142 55/87/133 53/84/132 47/95/143
f 49/93/141 51/88/136 55/87/133 54/94/142
f 56/86/134 55/87/133 51/88/136 50/89/139
f 59/96/144 53/84/132 48/85/135 58/97/145
f 47/95/143 53/84/132 59/96/144 57/98/146
f 61/99/147 62/83/129 60/80/128 44/100/148
f 57/98/146 59/96/144 62/83/129 61/99/147
f 63/82/130 62/83/129 59/96/144 58/97/145
s off
f 60/76/149 45/61/150 65/102/151 64/101/152
f 45/61/153 63/79/154 66/103/155 65/102/156
f 48/64/157 56/72/158 70/105/159 69/104/160
f 50/66/161 46/62/162 74/107/163 73/106/164
f 46/62/165 52/68/166 75/108/167 74/107/168
f 43/59/169 49/65/170 77/110/171 76/109/172
f 52/68/173 43/59/174 76/109/175 75/108/176
f 54/70/177 47/63/178 79/112/179 78/111/180
f 49/65/181 54/70/182 78/111/183 77/110/184
f 56/72/185 50/66/186 73/106/187 70/105/188
f 58/74/189 48/64/190 69/104/191 81/113/192
f 47/63/193 57/73/194 82/114/195 79/112/196
f 61/77/197 44/60/198 84/116/199 83/115/200
f 44/60/201 60/76/202 64/101/203 84/116/204
f 57/73/205 61/77/206 83/115/207 82/114/208
f 63/79/209 58/74/210 81/113/211 66/103/212
g default
v -3.464953 -0.000000 -0.499307
v -6.316464 -0.000000 2.793976
v -4.613548 -0.000000 1.749149
v -1.338140 -0.000000 -0.432824
v -2.313593 -0.000000 -0.499307
v -4.360072 -0.000000 0.608124
v -3.598991 -0.000000 0.608124
v -2.719725 -0.000000 0.513614
v -5.365778 -0.000000 1.677113
v -3.739071 -0.000000 1.190872
v -4.667881 -0.000000 1.542549
v -5.520404 -0.000000 2.311478
v -5.520404 0.268112 2.311478
v -4.613548 0.268112 1.749149
v -2.719725 0.268112 0.513614
v -3.598991 0.268112 0.608124
v -1.338140 0.268112 -0.432824
v -2.313593 0.268112 -0.499307
v -3.464953 0.268112 -0.499307
v -4.360072 0.268112 0.608124
v -4.667881 0.268112 1.542549
v -3.739071 0.268112 1.190872
v -5.365778 0.268112 1.677113
v -6.316464 0.268112 2.793976
vt 0.000000 0.000000
vt 1.000000 0.000000
vt 1.000000 1.000000
vt 0.000000 1.000000
vt 0.000000 0.500000
vt 0.333630 0.000000
vt 0.333630 0.500000
vt 0.333630 1.000000
vt 0.666200 0.000000
vt 0.666200 1.000000
vt 0.666200 0.500000
vt 1.000000 0.500000
vt 1.000000 0.500000
vt 1.000000 1.000000
vt 0.333630 1.000000
vt 0.333630 0.500000
vt 0.000000 1.000000
vt 0.000000 0.500000
vt 0.000000 0.000000
vt 0.333630 0.000000
vt 0.666200 0.500000
vt 0.666200 1.000000
vt 0.666200 0.000000
vt 1.000000 0.000000
vt 1.000000 0.500000
vt 1.000000 1.000000
vt 0.333630 1.000000
vt 0.000000 1.000000
vt 0.000000 0.500000
vt 0.000000 0.000000
vt 0.333630 0.000000
vt 0.666200 1.000000
vt 0.666200 0.000000
vt 1.000000 0.000000
vn 0.000000 1.000000 -0.000000
vn 0.000000 1.000000 0.000000
vn 0.000000 1.000000 -0.000000
vn 0.000000 1.000000 0.000000
vn 0.000000 1.000000 0.000000
vn 0.000000 1.000000 -0.000000
vn 0.000000 1.000000 0.000000
vn 0.000000 1.000000 0.000000
vn 0.000000 1.000000 0.000000
vn 0.000000 1.000000 0.000000
vn 0.000000 1.000000 -0.000000
vn 0.000000 1.000000 -0.000000
vn 0.000000 -1.000000 0.000000
vn 0.000000 -1.000000 0.000000
vn 0.000000 -1.000000 0.000000
vn 0.000000 -1.000000 0.000000
vn 0.000000 -1.000000 0.000000
vn 0.000000 -1.000000 0.000000
vn 0.000000 -1.000000 0.000000
vn 0.000000 -1.000000 0.000000
vn 0.000000 -1.000000 0.000000
vn 0.000000 -1.000000 0.000000
vn 0.000000 -1.000000 0.000000
vn 0.000000 -1.000000 0.000000
vn 0.526993 0.000000 0.849870
vn 0.526993 0.000000 0.849870
vn 0.526993 0.000000 0.849870
vn 0.526993 0.000000 0.849870
vn 0.538105 0.000000 0.842878
vn 0.538105 0.000000 0.842878
vn 0.538105 0.000000 0.842878
vn 0.538105 0.000000 0.842878
vn 0.067998 0.000000 -0.997685
vn 0.067998 0.000000 -0.997685
vn 0.067998 0.000000 -0.997685
vn 0.067998 0.000000 -0.997685
vn -0.777716 0.000000 -0.628615
vn -0.777716 0.000000 -0.628615
vn -0.777716 0.000000 -0.628615
vn -0.777716 0.000000 -0.628615
vn 0.000000 0.000000 -1.000000
vn 0.000000 0.000000 -1.000000
vn 0.000000 0.000000 -1.000000
vn 0.000000 0.000000 -1.000000
vn -0.728336 0.000000 -0.685220
vn -0.728336 0.000000 -0.685220
vn -0.728336 0.000000 -0.685220
vn -0.728336 0.000000 -0.685220
vn 0.565149 0.000000 0.824989
vn 0.565149 0.000000 0.824989
vn 0.565149 0.000000 0.824989
vn 0.565149 0.000000 0.824989
vn 0.553394 0.000000 0.832919
vn 0.553394 0.000000 0.832919
vn 0.553394 0.000000 0.832919
vn 0.553394 0.000000 0.832919
vn 0.518331 0.000000 0.855180
vn 0.518331 0.000000 0.855180
vn 0.518331 0.000000 0.855180
vn 0.518331 0.000000 0.855180
vn -0.761484 0.000000 -0.648184
vn -0.761484 0.000000 -0.648184
vn -0.761484 0.000000 -0.648184
vn -0.761484 0.000000 -0.648184
s 1
g nurbsToPoly5
usemtl initialShadingGroup
f 97/141/213 98/142/214 106/148/215 105/127/216
f 99/143/217 100/123/218 105/127/216 106/148/215
f 101/144/219 102/145/220 100/123/218 99/143/217
f 102/145/220 103/146/221 104/147/222 100/123/218
f 100/123/218 104/147/222 107/149/223 105/127/216
f 108/150/224 97/141/213 105/127/216 107/149/223
s 2
f 89/134/225 91/132/226 90/136/227 85/135/228
f 92/131/229 91/132/226 89/134/225 88/133/230
f 94/138/231 95/137/232 91/132/226 92/131/229
f 91/132/226 95/137/232 93/139/233 90/136/227
f 93/139/233 95/137/232 96/129/234 86/140/235
f 96/129/234 95/137/232 94/138/231 87/130/236
s off
f 96/128/237 87/119/238 98/142/239 97/141/240
f 98/142/241 87/119/242 94/126/243 106/148/244
f 88/120/245 89/121/246 102/145/247 101/144/248
f 103/146/249 85/117/250 90/122/251 104/147/252
f 89/121/253 85/117/254 103/146/255 102/145/256
f 104/147/257 90/122/258 93/125/259 107/149/260
f 101/144/261 99/143/262 92/124/263 88/120/264
f 99/143/265 106/148/266 94/126/267 92/124/268
f 86/118/269 96/128/270 97/141/271 108/150/272
f 108/150/273 107/149/274 93/125/275 86/118/276
