# This file uses centimeters as units for non-parametric coordinates.

mtllib tree01_v001.mtl
g default
v 0.500000 -0.437928 -0.866025
v -0.500000 -0.437928 -0.866026
v -1.000000 -0.437928 -0.000000
v -0.500000 -0.437928 0.866025
v 0.500000 -0.437928 0.866025
v 1.000000 -0.437928 0.000000
v 0.855778 1.836623 -1.482251
v -0.855778 1.836623 -1.482251
v -1.711556 1.836623 -0.000000
v -0.855778 1.836623 1.482251
v 0.855778 1.836623 1.482251
v 1.711556 1.836623 0.000000
v 1.493089 1.378114 -2.586107
v -1.493088 1.378114 -2.586107
v -2.986178 1.378114 -0.000000
v -1.493089 1.378114 2.586107
v 1.493089 1.378114 2.586107
v 2.986178 1.378114 0.000000
v 0.653029 3.172827 -1.131080
v -0.653029 3.172827 -1.131080
v -1.306058 3.172827 -0.000000
v -0.653029 3.172827 1.131080
v 0.653029 3.172827 1.131080
v 1.306058 3.172827 -0.000000
v 1.292720 2.536105 -2.239057
v -1.292720 2.536105 -2.239057
v -2.585440 2.536105 -0.000000
v -1.292720 2.536105 2.239057
v 1.292720 2.536105 2.239057
v 2.585440 2.536105 0.000000
v 0.474438 4.799982 -0.821749
v -0.474438 4.799982 -0.821749
v -0.948876 4.799982 -0.000000
v -0.474438 4.799982 0.821749
v 0.474438 4.799982 0.821749
v 0.948876 4.799982 0.000000
v 0.989036 4.023562 -1.713057
v -0.989036 4.023562 -1.713057
v -1.978072 4.023562 -0.000000
v -0.989036 4.023562 1.713057
v 0.989036 4.023562 1.713057
v 1.978072 4.023562 0.000000
v 0.323885 6.359706 -0.560984
v -0.323885 6.359706 -0.560984
v -0.647770 6.359706 -0.000000
v -0.323885 6.359706 0.560984
v 0.323885 6.359706 0.560984
v 0.647770 6.359706 0.000000
v 0.663480 5.833515 -1.149179
v -0.663480 5.833515 -1.149179
v -1.326961 5.833515 -0.000000
v -0.663480 5.833515 1.149179
v 0.663480 5.833515 1.149179
v 1.326961 5.833515 0.000000
v 0.000000 7.830194 -0.000000
v -0.782285 1.306801 -0.000000
v -0.391142 1.306801 -0.677479
v 0.391143 1.306801 -0.677479
v 0.782285 1.306801 -0.000000
v 0.391143 1.306801 0.677479
v -0.391143 1.306801 0.677479
vt 0.014315 0.112508
vt 0.105320 0.283273
vt 0.565087 0.269567
vt 0.119405 0.065349
vt 0.181193 0.269348
vt 0.240540 0.031500
vt 0.273617 0.258976
vt 0.373370 0.019064
vt 0.373171 0.255182
vt 0.506096 0.031708
vt 0.472714 0.259053
vt 0.081211 0.344542
vt 0.056838 0.411171
vt 0.562668 0.392370
vt 0.180284 0.343839
vt 0.183657 0.392489
vt 0.276091 0.338346
vt 0.278679 0.386268
vt 0.373156 0.336427
vt 0.373163 0.384704
vt 0.470210 0.338365
vt 0.467652 0.386265
vt 0.137763 0.502441
vt 0.539941 0.488921
vt 0.206539 0.488978
vt 0.287737 0.481010
vt 0.373213 0.478458
vt 0.458702 0.480984
vt 0.113966 0.560703
vt 0.537866 0.540748
vt 0.208591 0.540843
vt 0.290037 0.532182
vt 0.373204 0.529248
vt 0.456377 0.532142
vt 0.185222 0.652265
vt 0.509538 0.649617
vt 0.236792 0.649506
vt 0.302198 0.647497
vt 0.373176 0.646434
vt 0.444190 0.647534
vt 0.134039 0.707105
vt 0.521534 0.712008
vt 0.224835 0.712080
vt 0.299369 0.713020
vt 0.373189 0.712546
vt 0.446924 0.713012
vt 0.179825 0.852308
vt 0.518763 0.873136
vt 0.227116 0.872982
vt 0.298132 0.884565
vt 0.372566 0.888462
vt 0.448800 0.884877
vt 0.085431 0.857024
vt 0.574389 0.956412
vt 0.173154 0.955909
vt 0.284445 0.974581
vt 0.372710 0.973927
vt 0.461490 0.975601
vt 0.697406 0.492594
vt 0.627066 0.065607
vt 0.732205 0.112688
vt 0.640781 0.284044
vt 0.664760 0.344139
vt 0.689521 0.410284
vt 0.608781 0.502537
vt 0.632703 0.560385
vt 0.561093 0.652748
vt 0.612319 0.706619
vt 0.566973 0.853307
vt 0.660850 0.855076
vt 0.885364 0.492594
vt 0.565944 0.343775
vt 0.791385 0.655370
vt 0.979344 0.655370
vt 0.885364 0.818147
vt 0.697406 0.818147
vt 0.603427 0.655370
vn 0.000000 0.107441 -0.994212
vn 0.000000 0.107441 -0.994212
vn 0.000000 -0.412300 -0.911048
vn 0.000000 -0.412300 -0.911048
vn -0.861012 0.107441 -0.497106
vn -0.861012 0.107441 -0.497106
vn -0.788991 -0.412300 -0.455524
vn -0.788991 -0.412300 -0.455524
vn -0.861013 0.107441 0.497106
vn -0.861013 0.107441 0.497106
vn -0.788991 -0.412300 0.455524
vn -0.788991 -0.412300 0.455524
vn -0.000000 0.107441 0.994212
vn -0.000000 0.107441 0.994212
vn -0.000000 -0.412300 0.911048
vn -0.000000 -0.412300 0.911048
vn 0.861012 0.107441 0.497106
vn 0.861012 0.107441 0.497106
vn 0.788991 -0.412300 0.455524
vn 0.788991 -0.412300 0.455524
vn 0.861013 0.107441 -0.497106
vn 0.861013 0.107441 -0.497106
vn 0.788991 -0.412300 -0.455524
vn 0.788991 -0.412300 -0.455524
vn -0.000000 -0.923502 0.383595
vn -0.000000 -0.923502 0.383595
vn -0.000000 -0.923502 0.383595
vn -0.000000 -0.923502 0.383595
vn 0.332203 -0.923501 0.191798
vn 0.332203 -0.923501 0.191798
vn 0.332203 -0.923501 0.191798
vn 0.332203 -0.923501 0.191798
vn 0.332203 -0.923502 -0.191797
vn 0.332203 -0.923501 -0.191797
vn 0.332203 -0.923501 -0.191797
vn 0.332203 -0.923501 -0.191797
vn 0.000000 -0.923501 -0.383595
vn 0.000000 -0.923502 -0.383595
vn 0.000000 -0.923502 -0.383595
vn 0.000000 -0.923502 -0.383595
vn -0.332203 -0.923501 -0.191797
vn -0.332203 -0.923501 -0.191797
vn -0.332203 -0.923501 -0.191797
vn -0.332203 -0.923501 -0.191797
vn -0.332203 -0.923501 0.191797
vn -0.332203 -0.923501 0.191797
vn -0.332203 -0.923501 0.191797
vn -0.332203 -0.923501 0.191797
vn 0.000000 0.629764 -0.776786
vn 0.000000 0.629764 -0.776786
vn 0.000000 0.629764 -0.776787
vn 0.000000 0.629764 -0.776787
vn -0.672717 0.629764 -0.388393
vn -0.672717 0.629764 -0.388393
vn -0.672717 0.629764 -0.388393
vn -0.672717 0.629764 -0.388393
vn -0.672717 0.629764 0.388393
vn -0.672717 0.629764 0.388393
vn -0.672717 0.629764 0.388393
vn -0.672717 0.629764 0.388393
vn 0.000000 0.629764 0.776787
vn 0.000000 0.629764 0.776787
vn 0.000000 0.629764 0.776787
vn 0.000000 0.629764 0.776787
vn 0.672717 0.629764 0.388393
vn 0.672717 0.629764 0.388393
vn 0.672717 0.629764 0.388393
vn 0.672717 0.629764 0.388393
vn 0.672717 0.629764 -0.388393
vn 0.672717 0.629764 -0.388393
vn 0.672717 0.629764 -0.388393
vn 0.672717 0.629764 -0.388393
vn -0.000000 -0.867030 0.498257
vn -0.000000 -0.867030 0.498257
vn -0.000000 -0.867030 0.498257
vn -0.000000 -0.867030 0.498257
vn 0.431503 -0.867030 0.249128
vn 0.431503 -0.867030 0.249128
vn 0.431503 -0.867030 0.249128
vn 0.431503 -0.867030 0.249128
vn 0.431503 -0.867030 -0.249128
vn 0.431503 -0.867030 -0.249128
vn 0.431503 -0.867030 -0.249128
vn 0.431503 -0.867030 -0.249128
vn 0.000000 -0.867030 -0.498257
vn 0.000000 -0.867030 -0.498257
vn 0.000000 -0.867029 -0.498257
vn 0.000000 -0.867029 -0.498257
vn -0.431503 -0.867030 -0.249128
vn -0.431503 -0.867030 -0.249128
vn -0.431503 -0.867030 -0.249128
vn -0.431503 -0.867030 -0.249128
vn -0.431503 -0.867030 0.249128
vn -0.431503 -0.867030 0.249128
vn -0.431503 -0.867030 0.249128
vn -0.431503 -0.867030 0.249128
vn 0.000000 0.530641 -0.847597
vn 0.000000 0.530641 -0.847597
vn 0.000000 0.530641 -0.847597
vn 0.000000 0.530641 -0.847597
vn -0.734041 0.530640 -0.423799
vn -0.734040 0.530640 -0.423799
vn -0.734040 0.530640 -0.423799
vn -0.734040 0.530640 -0.423799
vn -0.734041 0.530640 0.423799
vn -0.734041 0.530640 0.423799
vn -0.734041 0.530640 0.423799
vn -0.734041 0.530640 0.423799
vn 0.000000 0.530641 0.847597
vn 0.000000 0.530641 0.847597
vn 0.000000 0.530641 0.847597
vn 0.000000 0.530641 0.847597
vn 0.734041 0.530640 0.423799
vn 0.734041 0.530640 0.423799
vn 0.734041 0.530640 0.423799
vn 0.734041 0.530640 0.423799
vn 0.734041 0.530640 -0.423799
vn 0.734041 0.530640 -0.423799
vn 0.734041 0.530640 -0.423799
vn 0.734041 0.530640 -0.423799
vn 0.000000 -0.754032 0.656838
vn 0.000000 -0.754032 0.656838
vn 0.000000 -0.754032 0.656838
vn 0.000000 -0.754032 0.656838
vn 0.568838 -0.754032 0.328419
vn 0.568838 -0.754032 0.328419
vn 0.568838 -0.754032 0.328419
vn 0.568838 -0.754032 0.328419
vn 0.568838 -0.754032 -0.328419
vn 0.568838 -0.754032 -0.328419
vn 0.568838 -0.754032 -0.328419
vn 0.568838 -0.754032 -0.328419
vn 0.000000 -0.754032 -0.656838
vn 0.000000 -0.754032 -0.656838
vn 0.000000 -0.754032 -0.656838
vn 0.000000 -0.754032 -0.656838
vn -0.568838 -0.754032 -0.328419
vn -0.568838 -0.754032 -0.328419
vn -0.568838 -0.754032 -0.328419
vn -0.568838 -0.754032 -0.328419
vn -0.568838 -0.754032 0.328419
vn -0.568838 -0.754032 0.328419
vn -0.568838 -0.754032 0.328419
vn -0.568838 -0.754032 0.328419
vn 0.000000 0.442293 -0.896871
vn 0.000000 0.442293 -0.896871
vn 0.000000 0.442293 -0.896871
vn 0.000000 0.442293 -0.896871
vn -0.776712 0.442294 -0.448436
vn -0.776712 0.442294 -0.448436
vn -0.776712 0.442294 -0.448436
vn -0.776712 0.442294 -0.448436
vn -0.776712 0.442294 0.448436
vn -0.776712 0.442294 0.448436
vn -0.776712 0.442294 0.448436
vn -0.776712 0.442294 0.448436
vn 0.000000 0.442293 0.896871
vn 0.000000 0.442293 0.896871
vn 0.000000 0.442293 0.896871
vn 0.000000 0.442293 0.896871
vn 0.776712 0.442294 0.448436
vn 0.776712 0.442294 0.448436
vn 0.776712 0.442294 0.448436
vn 0.776712 0.442294 0.448436
vn 0.776712 0.442294 -0.448436
vn 0.776712 0.442294 -0.448436
vn 0.776712 0.442294 -0.448436
vn 0.776712 0.442294 -0.448436
vn 0.000000 -0.745297 0.666732
vn 0.000000 -0.745297 0.666732
vn 0.000000 -0.745297 0.666732
vn 0.000000 -0.745297 0.666732
vn 0.577406 -0.745298 0.333366
vn 0.577406 -0.745298 0.333366
vn 0.577406 -0.745298 0.333366
vn 0.577406 -0.745298 0.333366
vn 0.577406 -0.745298 -0.333366
vn 0.577406 -0.745298 -0.333366
vn 0.577406 -0.745298 -0.333366
vn 0.577406 -0.745298 -0.333366
vn 0.000000 -0.745297 -0.666732
vn 0.000000 -0.745297 -0.666732
vn 0.000000 -0.745297 -0.666732
vn 0.000000 -0.745297 -0.666732
vn -0.577406 -0.745298 -0.333366
vn -0.577406 -0.745298 -0.333366
vn -0.577406 -0.745298 -0.333366
vn -0.577406 -0.745298 -0.333366
vn -0.577406 -0.745298 0.333366
vn -0.577406 -0.745298 0.333366
vn -0.577406 -0.745298 0.333366
vn -0.577406 -0.745298 0.333366
vn 0.000000 0.498826 -0.866702
vn 0.000000 0.498826 -0.866702
vn 0.000000 0.498826 -0.866702
vn -0.750585 0.498827 -0.433352
vn -0.750585 0.498827 -0.433352
vn -0.750585 0.498827 -0.433352
vn -0.750585 0.498827 0.433352
vn -0.750585 0.498827 0.433352
vn -0.750585 0.498827 0.433352
vn 0.000000 0.498826 0.866702
vn 0.000000 0.498826 0.866702
vn 0.000000 0.498826 0.866702
vn 0.750585 0.498827 0.433352
vn 0.750585 0.498827 0.433352
vn 0.750585 0.498827 0.433352
vn 0.750585 0.498827 -0.433352
vn 0.750585 0.498827 -0.433352
vn 0.750585 0.498827 -0.433352
vn -0.476212 -0.835242 -0.274941
vn -0.476212 -0.835243 -0.274941
vn 0.000000 -0.835243 -0.549882
vn 0.000000 -0.835243 -0.549882
vn 0.476212 -0.835243 -0.274941
vn 0.476212 -0.835243 -0.274941
vn 0.476212 -0.835242 0.274941
vn 0.476212 -0.835243 0.274941
vn 0.000000 -0.835243 0.549882
vn 0.000000 -0.835243 0.549882
vn -0.476212 -0.835243 0.274941
vn -0.476212 -0.835243 0.274941
s 1
g tree01_geo
usemtl blinn1SG
f 1/60/1 2/61/2 57/62/3 58/3/4
s 2
f 2/1/5 3/4/6 56/5/7 57/2/8
s 3
f 3/4/9 4/6/10 61/7/11 56/5/12
s 4
f 4/6/13 5/8/14 60/9/15 61/7/16
s 5
f 5/8/17 6/10/18 59/11/19 60/9/20
s 6
f 6/10/21 1/60/22 58/3/23 59/11/24
s off
f 7/72/25 8/63/26 14/64/27 13/14/28
f 8/12/29 9/15/30 15/16/31 14/13/32
f 9/15/33 10/17/34 16/18/35 15/16/36
f 10/17/37 11/19/38 17/20/39 16/18/40
f 11/19/41 12/21/42 18/22/43 17/20/44
f 12/21/45 7/72/46 13/14/47 18/22/48
f 13/14/49 14/64/50 20/65/51 19/24/52
f 14/13/53 15/16/54 21/25/55 20/23/56
f 15/16/57 16/18/58 22/26/59 21/25/60
f 16/18/61 17/20/62 23/27/63 22/26/64
f 17/20/65 18/22/66 24/28/67 23/27/68
f 18/22/69 13/14/70 19/24/71 24/28/72
f 19/24/73 20/65/74 26/66/75 25/30/76
f 20/23/77 21/25/78 27/31/79 26/29/80
f 21/25/81 22/26/82 28/32/83 27/31/84
f 22/26/85 23/27/86 29/33/87 28/32/88
f 23/27/89 24/28/90 30/34/91 29/33/92
f 24/28/93 19/24/94 25/30/95 30/34/96
f 25/30/97 26/66/98 32/67/99 31/36/100
f 26/29/101 27/31/102 33/37/103 32/35/104
f 27/31/105 28/32/106 34/38/107 33/37/108
f 28/32/109 29/33/110 35/39/111 34/38/112
f 29/33/113 30/34/114 36/40/115 35/39/116
f 30/34/117 25/30/118 31/36/119 36/40/120
f 31/36/121 32/67/122 38/68/123 37/42/124
f 32/35/125 33/37/126 39/43/127 38/41/128
f 33/37/129 34/38/130 40/44/131 39/43/132
f 34/38/133 35/39/134 41/45/135 40/44/136
f 35/39/137 36/40/138 42/46/139 41/45/140
f 36/40/141 31/36/142 37/42/143 42/46/144
f 37/42/145 38/68/146 44/69/147 43/48/148
f 38/41/149 39/43/150 45/49/151 44/47/152
f 39/43/153 40/44/154 46/50/155 45/49/156
f 40/44/157 41/45/158 47/51/159 46/50/160
f 41/45/161 42/46/162 48/52/163 47/51/164
f 42/46/165 37/42/166 43/48/167 48/52/168
f 43/48/169 44/69/170 50/70/171 49/54/172
f 44/47/173 45/49/174 51/55/175 50/53/176
f 45/49/177 46/50/178 52/56/179 51/55/180
f 46/50/181 47/51/182 53/57/183 52/56/184
f 47/51/185 48/52/186 54/58/187 53/57/188
f 48/52/189 43/48/190 49/54/191 54/58/192
f 49/59/193 50/71/194 55/73/195
f 50/71/196 51/74/197 55/73/198
f 51/74/199 52/75/200 55/73/201
f 52/75/202 53/76/203 55/73/204
f 53/76/205 54/77/206 55/73/207
f 54/77/208 49/59/209 55/73/210
s 2
f 57/2/8 56/5/7 9/15/211 8/12/212
s 1
f 58/3/4 57/62/3 8/63/213 7/72/214
s 6
f 59/11/24 58/3/23 7/72/215 12/21/216
s 5
f 60/9/20 59/11/19 12/21/217 11/19/218
s 4
f 61/7/16 60/9/15 11/19/219 10/17/220
s 3
f 56/5/12 61/7/11 10/17/221 9/15/222
