# This file uses centimeters as units for non-parametric coordinates.

mtllib worldPlant02_v001.mtl
g default
v -0.000000 0.000000 0.410603
v -0.000000 0.000000 -0.410603
v 0.000000 0.823801 -0.410603
v -0.000000 0.823801 0.410603
v -0.410603 0.000000 0.000000
v 0.410603 -0.000000 0.000000
v 0.410603 0.823801 0.000000
v -0.410603 0.823801 0.000000
vt 0.001992 0.995285
vt 0.001992 0.002545
vt 0.991606 0.002545
vt 0.991606 0.995285
vt 0.001992 0.995285
vt 0.001992 0.002545
vt 0.991605 0.002545
vt 0.991606 0.995285
vn 1.000000 -0.000000 0.000000
vn 1.000000 -0.000000 0.000000
vn 1.000000 -0.000000 0.000000
vn 1.000000 -0.000000 0.000000
vn 0.000000 0.000000 1.000000
vn 0.000000 0.000000 1.000000
vn 0.000000 0.000000 1.000000
vn 0.000000 0.000000 1.000000
s off
g worldPlant02_geo
usemtl blinn2SG
f 4/1/1 1/2/2 2/3/3 3/4/4
f 8/5/5 5/6/6 6/7/7 7/8/8
